<?xml version="1.0" encoding="UTF-8"?>
<svg xmlns="http://www.w3.org/2000/svg" xmlns:xlink="http://www.w3.org/1999/xlink" width="200px" height="25px" viewBox="0 0 198 25" version="1.1">
<g id="surface1">
<path style=" stroke:none;fill-rule:nonzero;fill:rgb(7.450981%,7.450981%,7.450981%);fill-opacity:1;" d="M 88.550781 5.261719 L 78.640625 5.261719 C 78.632812 5.261719 78.625 5.265625 78.625 5.273438 L 78.625 24.625 C 78.625 24.832031 78.460938 25 78.253906 25 L 73.46875 25 C 73.265625 25 73.097656 24.832031 73.097656 24.625 L 73.097656 5.273438 C 73.097656 5.265625 73.089844 5.261719 73.082031 5.261719 L 63.199219 5.261719 C 62.996094 5.261719 62.828125 5.09375 62.828125 4.886719 L 62.828125 0.554688 C 62.828125 0.351562 62.996094 0.183594 63.199219 0.183594 L 88.550781 0.183594 C 88.753906 0.183594 88.921875 0.351562 88.921875 0.554688 L 88.921875 4.886719 C 88.921875 5.09375 88.757812 5.261719 88.550781 5.261719 M 158.957031 0.183594 L 154.167969 0.183594 C 153.964844 0.183594 153.796875 0.351562 153.796875 0.554688 L 153.796875 24.628906 C 153.796875 24.832031 153.964844 25 154.167969 25 L 158.957031 25 C 159.160156 25 159.328125 24.832031 159.328125 24.628906 L 159.328125 0.554688 C 159.328125 0.347656 159.160156 0.183594 158.957031 0.183594 M 197.640625 24.398438 C 197.75 24.492188 197.785156 24.640625 197.738281 24.777344 C 197.6875 24.910156 197.558594 25 197.417969 25 L 190.042969 25 C 189.960938 25 189.882812 24.96875 189.820312 24.917969 L 181.71875 17.882812 C 181.644531 17.816406 181.601562 17.722656 181.601562 17.625 C 181.601562 17.523438 181.644531 17.429688 181.71875 17.367188 L 185.40625 14.164062 C 185.53125 14.050781 185.722656 14.050781 185.851562 14.164062 Z M 185.410156 11.019531 C 185.539062 11.128906 185.730469 11.128906 185.859375 11.019531 L 197.644531 0.785156 C 197.75 0.691406 197.789062 0.539062 197.738281 0.402344 C 197.6875 0.269531 197.5625 0.179688 197.417969 0.179688 L 190.046875 0.179688 C 189.964844 0.179688 189.882812 0.210938 189.820312 0.265625 L 181.722656 7.296875 C 181.648438 7.363281 181.601562 7.457031 181.601562 7.554688 C 181.601562 7.65625 181.644531 7.75 181.722656 7.816406 Z M 183.867188 12.589844 C 183.867188 12.492188 183.824219 12.398438 183.746094 12.332031 L 169.851562 0.265625 C 169.792969 0.210938 169.710938 0.183594 169.628906 0.183594 L 162.257812 0.183594 C 162.113281 0.183594 161.984375 0.273438 161.933594 0.40625 C 161.886719 0.539062 161.925781 0.691406 162.03125 0.785156 L 175.613281 12.578125 C 175.621094 12.585938 175.621094 12.597656 175.613281 12.605469 L 162.03125 24.398438 C 161.925781 24.492188 161.886719 24.644531 161.9375 24.777344 C 161.984375 24.914062 162.113281 25 162.257812 25 L 169.628906 25 C 169.710938 25 169.789062 24.972656 169.851562 24.917969 L 183.746094 12.851562 C 183.824219 12.785156 183.867188 12.691406 183.867188 12.589844 M 5.769531 8.25 C 5.769531 8.234375 5.785156 8.226562 5.792969 8.234375 C 6.519531 8.890625 23.066406 23.757812 23.863281 24.386719 C 24.570312 24.941406 25.382812 25.285156 26.445312 25.128906 C 27.816406 24.960938 29.328125 23.785156 29.328125 21.804688 L 29.328125 0.554688 C 29.328125 0.351562 29.160156 0.183594 28.957031 0.183594 L 24.167969 0.183594 C 23.964844 0.183594 23.796875 0.351562 23.796875 0.554688 L 23.796875 16.917969 C 23.796875 16.929688 23.78125 16.9375 23.773438 16.929688 C 23.046875 16.277344 6.5 1.410156 5.703125 0.78125 C 4.996094 0.226562 4.183594 -0.117188 3.121094 0.0390625 C 1.75 0.203125 0.242188 1.382812 0.242188 3.363281 L 0.242188 24.625 C 0.242188 24.832031 0.40625 25 0.613281 25 L 5.398438 25 C 5.601562 25 5.769531 24.832031 5.769531 24.625 Z M 127.28125 8.25 C 127.28125 8.234375 127.296875 8.226562 127.304688 8.234375 C 128.03125 8.890625 144.578125 23.757812 145.375 24.386719 C 146.082031 24.941406 146.894531 25.285156 147.957031 25.128906 C 149.328125 24.960938 150.839844 23.785156 150.839844 21.804688 L 150.839844 0.554688 C 150.839844 0.351562 150.671875 0.183594 150.46875 0.183594 L 145.679688 0.183594 C 145.476562 0.183594 145.308594 0.351562 145.308594 0.554688 L 145.308594 16.917969 C 145.308594 16.929688 145.292969 16.9375 145.285156 16.929688 C 144.558594 16.277344 128.011719 1.410156 127.214844 0.78125 C 126.511719 0.226562 125.695312 -0.117188 124.636719 0.0390625 C 123.261719 0.203125 121.753906 1.382812 121.753906 3.363281 L 121.753906 24.625 C 121.753906 24.832031 121.917969 25 122.125 25 L 126.910156 25 C 127.113281 25 127.28125 24.832031 127.28125 24.625 Z M 47.667969 25.492188 C 50.652344 25.484375 53.976562 25.316406 56.015625 24.105469 C 58.730469 22.5 60.050781 20.265625 60.050781 17.28125 L 60.054688 0.554688 C 60.054688 0.351562 59.886719 0.183594 59.683594 0.183594 L 54.847656 0.183594 C 54.644531 0.183594 54.476562 0.351562 54.476562 0.554688 L 54.476562 16.957031 C 54.429688 20.21875 50.398438 20.253906 47.492188 20.253906 L 44.847656 20.253906 C 41.941406 20.253906 37.910156 20.222656 37.863281 16.957031 L 37.863281 0.554688 C 37.863281 0.351562 37.695312 0.183594 37.492188 0.183594 L 32.65625 0.183594 C 32.453125 0.183594 32.285156 0.351562 32.285156 0.554688 L 32.289062 17.28125 C 32.289062 20.265625 33.609375 22.5 36.324219 24.105469 C 38.363281 25.316406 41.6875 25.484375 44.671875 25.492188 Z M 119.472656 24.441406 C 119.550781 24.546875 119.558594 24.6875 119.5 24.808594 C 119.441406 24.925781 119.320312 25 119.1875 25 L 113.277344 25 C 113.15625 25 113.046875 24.941406 112.976562 24.84375 L 109.53125 19.898438 C 109.527344 19.894531 109.523438 19.890625 109.515625 19.890625 L 91.792969 19.890625 C 91.789062 19.890625 91.785156 19.890625 91.78125 19.898438 L 88.320312 24.847656 C 88.253906 24.945312 88.148438 25 88.035156 25 L 82.121094 25 C 81.992188 25 81.871094 24.925781 81.8125 24.808594 C 81.753906 24.691406 81.761719 24.546875 81.835938 24.441406 C 81.835938 24.441406 96.871094 2.90625 97.796875 1.621094 C 98.722656 0.335938 99.65625 0 100.664062 0 C 101.769531 0 102.625 0.414062 103.449219 1.523438 Z M 105.929688 14.789062 L 100.671875 7.316406 C 100.664062 7.304688 100.652344 7.304688 100.644531 7.316406 L 95.382812 14.789062 C 95.375 14.796875 95.382812 14.8125 95.394531 14.8125 L 105.917969 14.8125 C 105.929688 14.8125 105.9375 14.796875 105.929688 14.789062 "/>
</g>
</svg>
